<?xml version="1.0" encoding="UTF-8"?>
<svg width="100px" height="100px" viewBox="0 0 100 100" version="1.1" xmlns="http://www.w3.org/2000/svg" xmlns:xlink="http://www.w3.org/1999/xlink">
    <!-- Generator: Sketch 53.2 (72643) - https://sketchapp.com -->
    <title>javascript</title>
    <desc>Created with Sketch.</desc>
    <defs>
        <linearGradient x1="52.2523551%" y1="7.38900791%" x2="50%" y2="100%" id="linearGradient-1">
            <stop stop-color="#D9D8DC" offset="0%"></stop>
            <stop stop-color="#FFFFFF" stop-opacity="0.385275136" offset="100%"></stop>
        </linearGradient>
        <linearGradient x1="71.1302877%" y1="7.69121524%" x2="50%" y2="100%" id="linearGradient-2">
            <stop stop-color="#8D67AF" stop-opacity="0.671931612" offset="0%"></stop>
            <stop stop-color="#9F8DAF" offset="100%"></stop>
        </linearGradient>
        <linearGradient x1="54.2330909%" y1="31.4346391%" x2="54.2330921%" y2="98.2279808%" id="linearGradient-3">
            <stop stop-color="#26053D" stop-opacity="0.761633832" offset="0%"></stop>
            <stop stop-color="#B7B4B4" stop-opacity="0.277683424" offset="100%"></stop>
        </linearGradient>
        <linearGradient x1="10.1328773%" y1="12.451927%" x2="50%" y2="92.8670491%" id="linearGradient-4">
            <stop stop-color="#91739F" stop-opacity="0.459550498" offset="0%"></stop>
            <stop stop-color="#32054F" stop-opacity="0.539911685" offset="100%"></stop>
        </linearGradient>
        <linearGradient x1="79.9532653%" y1="96.4102284%" x2="9.74090155%" y2="21.2268885%" id="linearGradient-5">
            <stop stop-color="#463D49" stop-opacity="0.331182065" offset="0%"></stop>
            <stop stop-color="#340A50" stop-opacity="0.821388134" offset="100%"></stop>
        </linearGradient>
        <linearGradient x1="76.285675%" y1="7.41856094%" x2="50%" y2="100%" id="linearGradient-6">
            <stop stop-color="#715383" stop-opacity="0.145238904" offset="0%"></stop>
            <stop stop-color="#F4F4F4" stop-opacity="0.23363904" offset="100%"></stop>
        </linearGradient>
        <linearGradient x1="131.602505%" y1="72.6651407%" x2="11.4366672%" y2="50%" id="linearGradient-7">
            <stop stop-color="#A5A1A8" stop-opacity="0.356091486" offset="0%"></stop>
            <stop stop-color="#370C50" stop-opacity="0.581974638" offset="100%"></stop>
        </linearGradient>
    </defs>
    <g id="Page-1" stroke="none" stroke-width="1" fill="none" fill-rule="evenodd">
        <g id="javascript" fill-rule="nonzero">
            <circle id="Oval" fill="#FFFFFF" cx="50" cy="50" r="50"></circle>
            <g id="elixir" transform="translate(31.000000, 16.000000)">
                <path d="M21.1522957,0.150753769 C16.8050402,1.69346934 12.6084968,6.19624384 8.56266516,13.6590773 C2.49391778,24.8533274 -5.34416136,40.7605646 5.4489371,53.3552228 C10.4421494,59.181891 18.6865648,62.6207537 29.5061259,57.1743437 C38.1979495,52.7990059 40.6152484,40.2428472 37.4947551,34.3424935 C31.0578051,22.1712501 24.5272342,19.1692435 22.7784743,11.6211686 C21.6126344,6.58911871 21.0705749,2.7656471 21.1522957,0.150753769 Z" id="Path" fill="url(#linearGradient-1)"></path>
                <path d="M21.1522957,0 C16.7829852,1.55861985 12.5864416,6.06139434 8.56266516,13.5083235 C2.52700045,24.6787173 -5.34416136,40.6098109 5.4489371,53.204469 C10.4421494,59.0311372 18.5804624,60.9139893 23.0962385,57.4582939 C26.0401481,55.2054686 28.042363,53.0580446 29.1959276,48.5334659 C30.4803979,43.4954408 29.4948748,36.7126774 28.8195874,33.5967849 C27.9650852,29.6539639 27.6854004,25.3264349 27.9805331,20.614198 C27.8765393,20.4873523 27.79883,20.3924258 27.7474054,20.3294186 C25.39644,17.4489288 23.5823005,14.9399245 22.7784743,11.4704149 C21.6126344,6.43836494 21.0705749,2.61489333 21.1522957,0 Z" id="Path" fill="url(#linearGradient-2)"></path>
                <path d="M17.5344369,1.95979899 C13.4647639,5.17991732 10.4388683,10.5811626 8.45675026,18.1635348 C5.48357315,29.5370932 5.1613962,40.0253489 6.20998718,46.125831 C8.24274301,57.951977 18.7812118,62.4410572 29.5907433,56.9364214 C36.2430739,53.5487949 39.0138098,46.2772952 38.8670195,38.3843911 C38.7150279,30.2118119 22.9404243,20.9496204 20.1467591,14.1291011 C18.2843158,9.58208831 17.4135417,5.52565428 17.5344369,1.95979899 Z" id="Path" fill="url(#linearGradient-3)"></path>
                <path d="M27.8519248,23.2830267 C32.7327035,29.5497577 33.7966197,33.9121581 31.0436735,36.3702279 C26.914254,40.0573327 16.8161037,42.463037 10.5339873,38.0028763 C6.34590963,35.0294356 4.76129314,28.6507372 5.78013775,18.866781 C4.05129925,22.4814962 2.58954785,26.1432262 1.39488357,29.8519711 C0.200219278,33.5607161 -0.148644286,37.4418543 0.348292874,41.4953857 C1.84548075,44.5278482 5.48568779,46.5531635 11.268914,47.5713314 C19.9437533,49.0985831 28.1542766,48.3439437 33.6635675,45.5634713 C37.3364282,43.709823 39.0736681,41.8645788 38.8752876,40.0277386 C39.0078312,37.3152412 38.172347,34.7331038 36.3688352,32.2813266 C34.5653234,29.8295495 31.7263533,26.8301162 27.8519248,23.2830267 Z" id="Path-2" fill="url(#linearGradient-4)"></path>
                <path d="M8.77871354,17.0255851 C8.73791525,21.5514409 9.90028558,25.8538081 12.2658245,29.9326868 C15.8141329,36.0510048 19.9560088,42.0966797 26.1539567,47.1079884 C30.2859221,50.4488608 33.58753,51.5282305 36.0587808,50.3460974 C34.0290043,53.9829574 31.8707562,55.7650505 29.5840364,55.6923761 C26.1539567,55.5833647 21.9715404,54.0825903 15.2702476,46.0202745 C10.8027192,40.6453973 7.74647559,35.5611185 6.10151684,30.767438 C6.36237244,28.8657134 6.63898122,26.9715404 6.93134318,25.0849192 C7.22370515,23.1982979 7.83949527,20.5118533 8.77871354,17.0255851 Z" id="Path-3" fill="url(#linearGradient-5)"></path>
                <path d="M19.2614254,23.2365715 C19.6405601,26.923459 21.0735699,32.8211753 19.2614254,36.7478836 C17.4492811,40.6745919 9.07915618,47.768293 11.3896402,54.0172358 C13.7001243,60.2661788 19.3307966,58.8632566 22.8627792,55.9834248 C26.3947618,53.1035931 28.2853382,48.4208545 28.7043965,45.1277148 C29.1234549,41.8345753 27.7017711,35.4980383 27.239391,29.9864162 C26.9311377,26.3120016 27.1402843,23.1615959 27.866831,20.5351993 L26.7845486,19.1717068 L20.414288,17.2833822 C19.3929566,18.7942498 19.0086691,20.7786463 19.2614254,23.2365715 Z" id="Path-7" fill="url(#linearGradient-6)"></path>
                <path d="M21.5353434,4.97487437 C19.4735535,5.84709403 17.5201087,7.57537132 15.6750087,10.1597063 C12.907359,14.0362087 11.4977277,16.3599289 12.5411402,24.0441232 C13.2367485,29.1669194 13.7346367,33.8797949 14.0348048,38.1827499 L22.9570893,12.2292612 C22.629075,10.9068147 22.3562585,9.71247674 22.1386402,8.64624749 C21.921022,7.58001825 21.7199231,6.35622721 21.5353434,4.97487437 Z" id="Path-5" fill="url(#linearGradient-7)"></path>
                <path d="M22.9399802,12.1776605 C20.6750095,13.5012093 18.9199571,16.212835 17.6748227,20.3125376 C16.4296886,24.4122403 15.2905556,30.1435191 14.2574237,37.5063742 C15.6353664,32.8233148 16.5494186,29.4313954 16.9995804,27.3306161 C17.6748227,24.1794472 17.9054674,19.7233211 19.6983826,16.6980253 C20.8936594,14.6811615 21.9741921,13.1743732 22.9399802,12.1776605 Z" id="Path-6" fill-opacity="0.316321332" fill="#330A4C"></path>
                <path d="M12.4526457,56.1041864 C16.1799847,56.6373142 18.1290282,57.1112834 18.2997762,57.5260937 C18.5558982,58.1483094 17.8279479,58.7174688 15.7589383,58.3349974 C14.3795984,58.0800166 13.2775009,57.3364129 12.4526457,56.1041864 Z" id="Path-4" fill="#FFFFFF"></path>
                <path d="M14.3252288,4.97487437 C12.2750582,7.42689847 10.4985633,10.0264354 8.99574437,12.7734851 C7.49292538,15.5205348 6.41911491,17.5699295 5.77431294,18.9216689 C5.5744638,19.9298711 5.47691927,21.4174909 5.48167936,23.384528 C5.48643946,25.3515653 5.65638098,27.5386976 5.99150393,29.9459254 C6.28490817,25.2320872 7.1831088,20.6565259 8.68610584,16.2192419 C10.1891029,11.7819578 12.0688105,8.03383533 14.3252288,4.97487437 Z" id="Path-9" fill-opacity="0.60326087" fill="#EDEDED"></path>
            </g>
        </g>
    </g>
</svg>