<?xml version="1.0" encoding="UTF-8"?>
<svg width="100px" height="100px" viewBox="0 0 100 100" version="1.1" xmlns="http://www.w3.org/2000/svg" xmlns:xlink="http://www.w3.org/1999/xlink">
    <!-- Generator: Sketch 53.2 (72643) - https://sketchapp.com -->
    <title>javascript</title>
    <desc>Created with Sketch.</desc>
    <g id="Page-1" stroke="none" stroke-width="1" fill="none" fill-rule="evenodd">
        <g id="javascript" fill-rule="nonzero">
            <circle id="Oval" fill="#FD4F00" cx="50" cy="50" r="50"></circle>
            <g id="phoenix" transform="translate(14.000000, 25.000000)" fill="#FFFFFF">
                <path d="M8.98102712,3.3324573 C10.4912503,2.95438452 11.823109,2.80780929 13.2542271,2.7512947 C12.9616578,4.8171408 10.3629974,5.06071001 8.98102712,3.3324573 Z M36.2017308,38.8196371 C32.6719181,36.5004974 31.0373081,39.366427 26.5405812,39.4130904 C23.8425455,39.4410865 20.1832957,38.5235952 15.6989147,35.6586939 C19.325294,40.8841136 23.5908748,43.8886545 28.1155774,45.1959294 C36.8081146,47.7073762 38.5,43.2874585 46.8779621,46.1737801 C45.6231449,44.1480721 43.0952074,43.1975674 40.55603,42.6863825 C37.9914678,42.1700928 36.2144737,42.7922109 34.124201,41.8615124 C32.3390994,41.0447123 32.4546255,39.2206542 36.2017308,38.8196371 Z M36.0280161,12.1683659 C37.9194875,14.804073 40.0778807,16.7799012 43.7236693,18.3876795 C48.4979704,20.3342548 53.3435565,20.667299 58.2995261,18.9495005 C62.1471221,17.6161201 64.9140058,18.9189749 66.3508402,22.6725044 C66.5854492,18.1279252 64.0610181,16.1450946 61.9433044,15.1128448 C57.4064486,12.9014219 52.4587036,16.8061265 46.9422526,16.3299426 C43.2775689,16.0136058 39.983524,15.2482649 36.0280161,12.1683659 Z M51.5589208,36.2609228 C50.6895806,37.0217444 49.328125,37.7720058 48.5259392,37.8416665 C48.573464,37.927495 48.5857962,37.9704092 48.5990325,37.9704092 C52.8666602,37.9719171 57.7182173,37.3382612 61.4427856,33.3057107 C63.8842192,30.6623946 64.2069064,29.1210421 68.8834178,29.9405168 C65.706526,27.3851689 60.3567723,27.8492247 56.5468658,31.2995415 C54.9970456,32.7030852 53.7646484,34.3972523 51.5589208,36.2609228 Z M39.9309415,28.886531 C44.5908203,31.2365721 50.4372559,31.198795 55.3455537,28.00482 C59.954617,24.8667266 64.3826773,27.2144527 64.7359447,26.6539114 C61.2461827,24.1901033 57.798406,24.1592873 54.5308705,25.0109154 C48.1625977,26.5144379 47.9029021,31.0725379 39.9309415,28.886531 Z M50.8575997,12.9103059 C50.0612793,12.9241333 48.2565918,13.5380108 45.9529689,12.7598685 C42.2120067,11.3296037 40.5228842,6.98770044 32.2578872,7.10986262 C34.4143872,10.2451107 43.8138036,16.793136 50.8575997,12.9103059 Z M77,36.3130554 C72.7891267,35.1775943 71.5671387,28.875505 64.7428611,33.0194959 C70.1384277,32.8043206 70.1384277,39.8119678 77,36.3130554 Z M49.5958201,21.3714619 C41.4075536,21.603416 35.1973428,14.2859664 30.513355,8.04250257 C24.5136719,0.0453008353 12.2317712,-3.58129881 0,4.71963149 C0,4.71963149 8.2555173,3.08102094 9.32421875,15.1668219 C9.9248771,21.9595912 9.32007093,24.1029721 11.7304779,28.3529206 C18.2724609,39.8875219 28.9156061,37.0305154 28.9156061,37.0305154 L28.9156061,37.0305154 C22.9313209,36.1733466 20.5533862,32.0047074 19.8515625,28.7055081 C19.5006518,26.8418376 20.7232228,24.7333632 23.8022698,24.8471048 C26.9336814,24.9627787 29.3052641,28.7106453 33.2982895,33.3050928 C38.8050679,40.2414468 47.0268887,37.3102051 52.8833616,32.1152672 C52.5853111,31.2309968 49.77915,32.6407706 46.9587751,32.6076419 C42.4936174,32.5552004 38.3435558,31.5280716 35.2170894,29.3052653 C29.0003248,24.4492904 28.4635003,18.079415 33.7335195,18.5179348 C36.0686841,18.6568042 38.0782105,21.6607756 40.1793605,22.6108054 C43.187173,23.97078 46.2257401,23.5617252 49.5958201,21.3714619 Z M51.7067046,52.9660951 C48.977212,51.6991521 49.4283839,46.3599908 40.543808,46.8897276 C45.8735604,48.1979524 46.5180077,53.4706211 51.7067046,52.9660951 Z" id="Shape-Copy"></path>
            </g>
        </g>
    </g>
</svg>