<?xml version="1.0" encoding="UTF-8"?>
<svg width="100px" height="100px" viewBox="0 0 100 100" version="1.1" xmlns="http://www.w3.org/2000/svg" xmlns:xlink="http://www.w3.org/1999/xlink">
    <!-- Generator: Sketch 53.2 (72643) - https://sketchapp.com -->
    <title>Untitled 2</title>
    <desc>Created with Sketch.</desc>
    <g id="Page-1" stroke="none" stroke-width="1" fill="none" fill-rule="evenodd">
        <g id="php" fill="#8892BF" fill-rule="nonzero">
            <circle id="Oval" cx="50" cy="50" r="50"></circle>
        </g>
        <g id="php-logo" transform="translate(15.000000, 33.000000)" fill="#000000" fill-rule="nonzero">
            <path d="M5.52155276,7 L15.8696377,7 C18.9068924,7.0257888 21.107791,7.9114497 22.4723336,9.65550907 C23.8368762,11.3995684 24.2871097,13.7817163 23.8237626,16.8019526 C23.6438149,18.1820215 23.2445788,19.5355649 22.6267827,20.8633194 C22.0344852,22.1910739 21.2112427,23.3884108 20.1555982,24.4560669 C18.8682801,25.8096103 17.4913525,26.6687456 16.0240867,27.0334728 C14.5568209,27.3982 13.0378293,27.5801953 11.4678404,27.5801953 L6.83436951,27.5801953 L5.36710374,35 L0,35 L5.52155276,7 L5.52155276,7 M10.0391868,11.4518828 L7.72245142,23.167364 C7.87690045,23.1931528 8.03134948,23.2064156 8.1857985,23.2064156 C8.36574619,23.2064156 8.54642242,23.2064156 8.7263701,23.2064156 C11.1975546,23.2322044 13.2571178,22.9853688 14.9043312,22.4644351 C16.5515447,21.9177127 17.6589151,20.0174469 18.2249853,16.762901 C18.6883324,14.0292887 18.2249853,12.4539617 16.8349441,12.0376569 C15.4704015,11.6213521 13.7590771,11.4260941 11.6995139,11.4518828 C11.3906158,11.4776716 11.0948314,11.4909344 10.811432,11.4909344 C10.5542598,11.4909344 10.283974,11.4909344 10.0005746,11.4909344 L10.0391868,11.4518828" id="Shape"></path>
            <path d="M30.4474218,0 L35.6678676,0 L34.1925242,7.44846797 L38.8833596,7.44846797 C41.4557532,7.50070952 43.3722007,8.04667052 44.6334159,9.08635097 C45.9196127,10.1260314 46.2979059,12.1023808 45.7682954,15.0139276 L43.2337311,28 L37.9376267,28 L40.358703,15.5988858 C40.6106605,14.2987334 40.5350019,13.3760446 40.1317271,12.8300836 C39.7284523,12.2841226 38.858378,12.0111421 37.5215042,12.0111421 L33.3224499,11.9721448 L30.2204458,28 L25,28 L30.4474218,0 L30.4474218,0" id="Path"></path>
            <path d="M51.5215528,7 L61.8696377,7 C64.9068924,7.0257888 67.107791,7.9114497 68.4723336,9.65550907 C69.8368762,11.3995684 70.2871097,13.7817163 69.8237626,16.8019526 C69.6438149,18.1820215 69.2445788,19.5355649 68.6267827,20.8633194 C68.0344852,22.1910739 67.2112427,23.3884108 66.1555982,24.4560669 C64.8682801,25.8096103 63.4913525,26.6687456 62.0240867,27.0334728 C60.5568209,27.3982 59.0378293,27.5801953 57.4678404,27.5801953 L52.8343695,27.5801953 L51.3671037,35 L46,35 L51.5215528,7 L51.5215528,7 M56.0391868,11.4518828 L53.7224514,23.167364 C53.8769004,23.1931528 54.0313495,23.2064156 54.1857985,23.2064156 C54.3657462,23.2064156 54.5464224,23.2064156 54.7263701,23.2064156 C57.1975546,23.2322044 59.2571178,22.9853688 60.9043312,22.4644351 C62.5515447,21.9177127 63.6589151,20.0174469 64.2249853,16.762901 C64.6883324,14.0292887 64.2249853,12.4539617 62.8349441,12.0376569 C61.4704015,11.6213521 59.7590771,11.4260941 57.6995139,11.4518828 C57.3906158,11.4776716 57.0948314,11.4909344 56.811432,11.4909344 C56.5542598,11.4909344 56.283974,11.4909344 56.0005746,11.4909344 L56.0391868,11.4518828" id="Shape"></path>
        </g>
    </g>
</svg>