<?xml version="1.0" encoding="UTF-8"?>
<svg width="100px" height="100px" viewBox="0 0 100 100" version="1.1" xmlns="http://www.w3.org/2000/svg" xmlns:xlink="http://www.w3.org/1999/xlink">
    <!-- Generator: Sketch 53.2 (72643) - https://sketchapp.com -->
    <title>javascript</title>
    <desc>Created with Sketch.</desc>
    <g id="Page-1" stroke="none" stroke-width="1" fill="none" fill-rule="evenodd">
        <g id="javascript">
            <circle id="Oval" fill="#222222" fill-rule="nonzero" cx="50" cy="50" r="50"></circle>
            <g id="react" transform="translate(21.000000, 24.000000)">
                <circle id="Oval" fill="#00D8FF" fill-rule="nonzero" cx="29" cy="26" r="6"></circle>
                <path d="M29,15 C36.2641009,15 43.0122647,16.0843659 48.1003492,17.906639 C54.2307689,20.1021854 58,23.4303415 58,26.4439024 C58,29.5843561 54.0052622,33.1198488 47.4221033,35.3889951 C42.4448849,37.1045707 35.8955898,38 29,38 C21.9302383,38 15.2355662,37.1594341 10.2034541,35.3700341 C3.83555658,33.1057122 0,29.5243317 0,26.4439024 C0,23.4548 3.59883377,20.1524488 9.64308426,17.9601561 C14.7501497,16.1079268 21.6649362,15 29,15 Z" id="Path" stroke="#00D8FF" stroke-width="3"></path>
                <path d="M19.5960888,20.415956 C23.1679353,14.0363366 27.3748781,8.63769239 31.3702637,5.05623605 C36.1841731,0.741125664 40.7652953,-0.948902747 43.235197,0.518186676 C45.8091259,2.04705174 46.7426104,7.2767696 45.3653121,14.1630586 C44.3239791,19.3694876 41.837518,25.5573292 38.4468698,31.6134193 C34.9705585,37.8224723 30.9898216,43.2927325 27.0487849,46.8410596 C22.0617445,51.3313285 17.2405108,52.9561918 14.7157294,51.4565199 C12.26589,50.0012389 11.3289026,45.2329249 12.5041971,38.8572416 C13.4972318,33.4701872 15.9893189,26.8580071 19.5960888,20.415956 Z" id="Path" stroke="#00D8FF" stroke-width="3"></path>
                <path d="M19.5700748,31.5921806 C15.9975378,25.2142109 13.5642194,18.7593231 12.5499221,13.4015309 C11.3278108,6.94620545 12.191885,2.0105331 14.6528343,0.538146872 C17.21732,-0.996277181 22.0692415,0.783672226 27.1597838,5.45521881 C31.0086298,8.98710761 34.9608004,14.2999305 38.3522016,20.354472 C41.8292479,26.561865 44.4353388,32.8505527 45.4490009,38.1432435 C46.7317731,44.8408119 45.6934443,49.9582211 43.1778684,51.4633222 C40.7369277,52.9237823 36.2702507,51.3775415 31.5073621,47.1415727 C27.4830971,43.5625264 23.1776533,38.0325163 19.5700748,31.5921806 Z" id="Path" stroke="#00D8FF" stroke-width="3"></path>
            </g>
        </g>
    </g>
</svg>