<svg xmlns="http://www.w3.org/2000/svg" viewBox="0 0 48 48"><defs><style>.cls-1{fill:#c00;}.cls-2{fill:#fff;}</style></defs><title>iconcircle_ruby</title><g id="Layer_1" data-name="Layer 1"><circle class="cls-1" cx="24" cy="24" r="24"/></g><g id="Layer_2" data-name="Layer 2"><path class="cls-2" d="M14.26,38.86c1.36-26.1,17-30,24.74-22.29l-.41,1c-12.37-6.66-16.17,12.1-10.74,21.34Z" transform="translate(-1 -1)"/><path class="cls-2" d="M35.47,16.71v.82l1.36.14V17Zm.14-3.94v.82l1.5,1v-.68Zm-4.49,4.62L32.34,17l.41,1.22-1.09.41Zm-2.45-6.25h1.9L31,12.5H29.21Zm.27,8,1,1.5-.68,1-1.09-1.5ZM24.32,12l1.09,1.63-1.5,1L22.69,12.9Zm2.45,11.42-.41,1.5L27.85,26l.27-1.36Zm-8.29-7.2,1.77,1.5L19,19.43l-1.77-1.36ZM26,28.26v1.63l2,.68-.14-1.5Zm-11.83-5,2.17,1-.68,2-2.31-.82ZM26.77,34.38l.54,1.77,2.45.27-.54-1.63ZM11.54,31.8,14,32.2l-.27,2.58L11,34.51Z" transform="translate(-1 -1)"/></g></svg>