<?xml version="1.0" encoding="UTF-8"?>
<svg width="100px" height="100px" viewBox="0 0 100 100" version="1.1" xmlns="http://www.w3.org/2000/svg" xmlns:xlink="http://www.w3.org/1999/xlink">
    <!-- Generator: Sketch 53.2 (72643) - https://sketchapp.com -->
    <title>javascript</title>
    <desc>Created with Sketch.</desc>
    <g id="Page-1" stroke="none" stroke-width="1" fill="none" fill-rule="evenodd">
        <g id="javascript" fill-rule="nonzero">
            <circle id="Oval" fill="#D32F2F" cx="50" cy="50" r="50"></circle>
            <path d="M73.5890002,27.7263953 C72.7201601,24.3788703 70.5067066,22.3782358 67.2464947,21.4177449 C66.6676942,21.246153 66.0743988,21.1046427 65.4772665,21.0207533 C65.0937205,20.9656744 64.6902796,21.0351585 64.2960757,21.0574725 C62.2947872,21.1739856 60.2949198,21.2945941 58.2950524,21.4125195 C56.1888365,21.5381114 54.0825784,21.663004 51.9762785,21.7871971 C51.9512677,21.7886094 51.9275359,21.7990602 51.8471035,21.8186909 C51.9499888,21.8921295 52.0197632,21.944525 52.0923797,21.9956495 C53.731154,23.1419964 55.3685072,24.2910266 57.0125395,25.430877 C57.1904571,25.55544 57.2379207,25.6575478 57.1667252,25.87518 C55.7494953,30.3035221 54.3415022,34.7359598 52.9242722,39.1657142 C52.8820665,39.2993158 52.7938183,39.4341885 52.689654,39.529941 C47.6731002,44.1659453 42.6515206,48.7965756 37.6249241,53.4218237 C37.4732962,53.5606507 37.2597099,53.6668541 37.0593395,53.7127531 C32.6916904,54.6889204 28.3226203,55.6544956 23.9549712,56.6227541 C23.8705598,56.6409725 23.7848695,56.6514233 23.6794264,56.6699242 C22.9069344,54.5328636 22.1370004,52.4090784 21.3697664,50.2852931 L21.3275607,50.2852931 C21.2761181,50.7791672 21.2208386,51.2717701 21.1719539,51.7657853 C21.0168034,53.2946318 20.8629965,54.8236128 20.7105334,56.3527263 C20.5628846,57.8385851 20.4165147,59.3243026 20.2688659,60.8101614 C20.1963915,61.5490658 20.1237749,62.2866991 20.0487426,63.0257447 C20.0447636,63.0664184 20.0170528,63.1044087 20,63.1450823 L20,63.7739702 C20.0554216,64.2586643 20.1028853,64.7433585 20.1674017,65.2255106 C20.3585352,66.6719667 20.7290073,68.0647566 21.4357039,69.3538848 C22.7145219,71.6861225 24.7368422,73.0184663 27.3035732,73.5583803 C28.2673408,73.7614665 29.2653561,73.8178164 30.2474554,73.9409667 C30.3845883,73.9593263 30.5217213,73.9802283 30.6588542,74 L31.2916553,74 C31.6041479,73.9659642 31.9164984,73.9226072 32.23027,73.9017057 C33.9322818,73.7864634 35.6342936,73.6815312 37.3348843,73.5677015 C39.2807512,73.4366421 41.2266181,73.297815 43.1737639,73.1680268 C44.8744967,73.0527845 46.5777875,72.9478523 48.2783782,72.8340226 C50.2256662,72.7029632 52.1715331,72.5654073 54.1172579,72.4343479 C55.8192697,72.3203768 57.5198604,72.2141733 59.2218722,72.1003437 C61.1691601,71.9705555 63.115027,71.832999 65.0621728,71.7008098 C66.4911977,71.6050574 67.9202224,71.5146717 69.3506687,71.4203314 C69.8753261,71.3850243 70.4001264,71.3457627 70.9405582,71.3077729 C70.9840427,70.7836761 71.0262487,70.2727135 71.0671749,69.7603384 C71.203029,68.0020511 71.3414408,66.2424927 71.475874,64.4842053 C71.587996,63.011622 71.6972763,61.5401685 71.8106774,60.0688562 C71.9254994,58.588364 72.0441589,57.1077307 72.1601177,55.6286509 C72.255045,54.3996856 72.3472723,53.1719915 72.4421997,51.9444386 C72.5568794,50.4468579 72.6755388,48.9492772 72.7914977,47.4516965 C72.886425,46.2317699 72.9786523,45.0133968 73.0723005,43.7936114 C73.1896808,42.2790833 73.3096188,40.7631431 73.4255776,39.2484738 C73.5389788,37.7850703 73.6484008,36.3227966 73.760381,34.859393 C73.8420923,33.8138829 73.9779464,32.7696437 73.9964202,31.7241336 C74.0201523,30.380915 73.9304827,29.0419333 73.5890002,27.7263953 L73.5890002,27.7263953 Z M23.1573485,67.9901589 C23.1384697,67.9940885 23.1194002,67.9973717 23.1001894,68 C23.0566319,67.9235328 23.0056259,67.8470656 22.9680596,67.7680716 C22.3221455,66.4306254 22.0502755,65.0329364 22.0005649,63.6030646 C21.996031,63.4574443 22.0185384,63.3031799 22.0771549,63.1675336 C22.6689864,61.815326 23.2729621,60.466842 23.8722421,59.118491 C23.8918349,59.0740735 23.9203335,59.0332466 24,59 L23.1573485,67.9901589 L23.1573485,67.9901589 Z M31.2495972,71.9835455 C31.2270829,71.9886187 31.2032862,71.9936925 31.1794894,72 C28.7934036,67.2755306 26.4073177,62.551061 24,57.787101 C28.3385582,56.8571532 32.6402101,55.9348841 37,55 C35.083561,60.6612953 33.16676,66.3224771 31.2495972,71.9835455 L31.2495972,71.9835455 Z M45.7190148,70 C43.150779,65.0105282 40.5967116,60.0443758 38,55 C44.3607905,57.0073894 50.6480995,58.9899835 57,60.9945686 C53.493592,64.4175063 49.8453609,67.5257793 45.7190148,70 L45.7190148,70 Z M58.8720418,59 C57.2489937,52.6818591 55.6249797,46.3639436 54,40.0462536 C54.0229593,40.0308819 54.0444656,40.0153717 54.0661172,40 C58.7116167,42.7493221 63.3571161,45.4972594 68,48.2440889 C67.2342024,49.8538265 60.5948683,57.6805248 58.8720418,59 L58.8720418,59 Z M68.9460769,70 C65.6391982,66.7902433 62.3312133,63.581782 59,60.3492858 C60.7740754,58.6882778 62.3966126,56.9311296 63.8909783,55.0471859 C65.3840996,53.1645375 66.7283096,51.1750986 67.8121672,49 C67.8352577,49.0038859 67.8571037,49.0080597 67.8801936,49.0120894 L69,69.9558158 L68.9460769,70 L68.9460769,70 Z M71.984093,37.8706998 C66.3156043,38.2470854 60.682286,38.6221806 55,39 C56.2988623,34.6529973 57.5864973,30.3444218 58.8840069,26 C58.9769374,26.0731263 59.0509301,26.1263222 59.1187003,26.1848232 C63.3591436,29.8669497 67.5970167,33.5515138 71.8435471,37.2256108 C72.0744529,37.4252026 71.9804402,37.6245078 71.984093,37.8706998 Z M59.0052345,25.5559005 C59.0039613,25.5333624 59.0012733,25.512039 59,25.4895009 C59.0997388,25.4469889 59.1982044,25.4031274 59.2979432,25.3630447 C61.205006,24.5943208 63.1119274,23.8230326 65.0229514,23.0642956 C65.1726304,23.004239 65.3629123,22.9841302 65.5216456,23.0130114 C67.1767441,23.313564 68.7227666,23.8519137 70.007629,24.9386 C70.9748832,25.756314 71.6100994,26.7741714 72,28 C67.641343,27.1797218 63.3232888,26.3672713 59.0052345,25.5559005 Z" id="Shape" fill="#FFFFFF"></path>
            <path d="M23,48.6837384 C23.0646073,46.901412 23.5245164,45.2179554 24.1832599,43.5829507 C25.3031658,40.799988 26.8856262,38.2931306 28.7496296,35.9663176 C32.1676885,31.7045196 36.2107949,28.1803135 40.9734926,25.5171462 C42.7702432,24.512718 44.6485882,23.6997097 46.6675655,23.2618172 C47.9063821,22.993436 49.1555025,22.8786964 50.4071291,23.1746039 C52.3511954,23.6344051 53.4749999,24.9098829 53.8625043,26.851328 C54.1725914,28.404456 53.9207066,29.9287939 53.4801518,31.4244819 C52.7491428,33.9038129 51.5490348,36.1552096 50.0918902,38.2658852 C46.2566688,43.8239461 41.4178069,48.2825007 35.5584564,51.5970296 C33.8416295,52.5677522 32.0358284,53.3377858 30.1020659,53.7558762 C28.9731095,53.99954 27.8349633,54.1064149 26.6931968,53.8600828 C24.8098391,53.4549129 23.5284151,52.1142708 23.1783662,50.1808308 C23.0892528,49.6883071 23.0569491,49.1841268 23,48.6837384 L23,48.6837384 Z" id="Path" fill="#FFFFFF"></path>
        </g>
    </g>
</svg>