<?xml version="1.0" encoding="UTF-8"?>
<svg width="100px" height="100px" viewBox="0 0 100 100" version="1.1" xmlns="http://www.w3.org/2000/svg" xmlns:xlink="http://www.w3.org/1999/xlink">
    <!-- Generator: Sketch 53.2 (72643) - https://sketchapp.com -->
    <title>javascript</title>
    <desc>Created with Sketch.</desc>
    <g id="Page-1" stroke="none" stroke-width="1" fill="none" fill-rule="evenodd">
        <g id="javascript" fill-rule="nonzero">
            <circle id="Oval" fill="#1A171B" cx="50" cy="50" r="50"></circle>
            <path d="M64.2387259,29.0053825 C61.0007644,29.1180084 58.1743002,30.8974984 56.0706564,33.3595995 C53.7411315,36.0587048 52.1913882,39.2602197 51.0747484,42.5283307 C49.0771707,40.8957443 47.5362665,38.7822939 44.3316963,37.8607199 C41.8548571,37.1516661 39.2532922,37.4444936 36.8609131,39.2220248 C35.7275775,40.0662297 34.9468134,41.3423306 34.5755821,42.5420418 C33.6141129,45.6593321 35.5861561,48.4338479 36.4818251,49.4298529 L38.440119,51.5227367 C38.8437593,51.9330871 39.8160316,53.0035231 39.3406985,54.538174 C38.8270637,56.2069969 36.8098442,57.2872266 34.7405738,56.6506451 C33.8164241,56.3695698 32.488634,55.6830413 32.7862083,54.7164168 C32.9089699,54.3207571 33.1927949,54.0249914 33.3450193,53.6831962 C33.4844766,53.3893895 33.5512589,53.1690343 33.5934889,53.0397593 C33.9715948,51.8087088 33.4550138,50.2074615 32.1331163,49.8010289 C30.8996072,49.4239767 29.6376174,49.7226804 29.148535,51.3062991 C28.5936523,53.1053762 29.4569123,56.3705493 34.0815892,57.7925742 C39.4997976,59.4525827 44.0832267,56.5105972 44.7333723,52.6734803 C45.1429053,50.2701404 44.0547458,48.4847744 42.0610967,46.1881843 L40.4367145,44.3969422 C39.4526571,43.4166068 39.114817,41.7458254 40.1332477,40.4618896 C40.9925793,39.3787218 42.2162674,38.9164657 44.2207196,39.4600083 C47.1463753,40.2523074 48.4505951,42.2766364 50.6269138,43.9092228 C49.7282986,46.8482703 49.1410068,49.7980907 48.6096943,52.4433315 L48.2856036,54.4157547 C46.729968,62.5522446 45.5426172,67.020067 42.4568803,69.5850004 C41.8352153,70.0257107 40.9464209,70.6857966 39.6068457,70.7318264 C38.9046491,70.7533722 38.6777855,70.2715291 38.6679646,70.0619468 C38.651269,69.57031 39.0666944,69.3450581 39.3426626,69.1237238 C39.7551418,68.8994511 40.378771,68.5272959 40.336541,67.3354195 C40.2913647,65.9271057 39.1216917,64.7058486 37.4305271,64.7616718 C36.1636269,64.8047637 34.2328316,65.9937018 34.3055065,68.1698308 C34.3811277,70.4174532 36.4818251,72.1019456 39.6490757,71.9951956 C41.3422045,71.9374137 45.1232635,71.2499057 48.8493251,66.8330098 C53.1862488,61.7697391 54.3991339,55.9650959 55.3114986,51.7166494 L56.3299291,46.1078771 C56.8956148,46.1754527 57.5005842,46.220503 58.1585868,46.2361729 C63.5600994,46.349778 66.261838,43.5595926 66.3021038,41.530367 C66.3286202,40.3022545 65.4938411,39.0937292 64.3251502,39.1211511 C63.4884066,39.1446557 62.437567,39.6999505 62.185169,40.853632 C61.9386635,41.9857676 63.9038322,43.0072359 62.3678383,43.9993237 C61.2767327,44.7034807 59.3204031,45.2000143 56.5656315,44.7965194 L57.066499,42.0357147 C58.0888581,36.8000773 59.3498657,30.3598319 64.133642,30.2031349 C64.4822849,30.1855065 65.7580241,30.2188046 65.7874869,31.0600715 C65.7963257,31.3411467 65.7265971,31.4126397 65.3966138,32.0560766 C65.0607378,32.5575069 64.9340479,32.9845061 64.9497613,33.4751635 C64.9959198,34.8119845 66.0153325,35.6904669 67.4894545,35.6375817 C69.4634617,35.5739235 70.0311117,33.6573237 69.9987027,32.6730709 C69.9191532,30.3608113 67.4747231,28.899612 64.2387259,29.0053825 L64.2387259,29.0053825 Z" id="Path" fill="#FFFFFF"></path>
        </g>
    </g>
</svg>