<?xml version="1.0" encoding="UTF-8"?>
<svg width="100px" height="100px" viewBox="0 0 100 100" version="1.1" xmlns="http://www.w3.org/2000/svg" xmlns:xlink="http://www.w3.org/1999/xlink">
    <!-- Generator: Sketch 53.2 (72643) - https://sketchapp.com -->
    <title>wordpress</title>
    <desc>Created with Sketch.</desc>
    <g id="Page-1" stroke="none" stroke-width="1" fill="none" fill-rule="evenodd">
        <g id="wordpress" fill-rule="nonzero">
            <circle id="Oval" fill="#21759B" cx="50" cy="50" r="50"></circle>
            <path d="M22.5,50 C22.5,60.9 28.8,70.3 38,74.7 L24.9,38.8 C23.4,42.2 22.5,46 22.5,50 Z M68.5,48.6 C68.5,45.2 67.3,42.9 66.2,41 C64.8,38.7 63.5,36.8 63.5,34.6 C63.5,32.1 65.4,29.7 68.1,29.7 C68.2,29.7 68.3,29.7 68.5,29.7 C63.6,25.2 57.1,22.5 50,22.5 C40.4,22.5 32,27.4 27.1,34.9 C27.7,34.9 28.4,34.9 28.9,34.9 C31.8,34.9 36.2,34.5 36.2,34.5 C37.7,34.4 37.9,36.6 36.4,36.8 C36.4,36.8 34.9,37 33.3,37.1 L43.3,66.8 L49.3,48.8 L45,37.1 C43.4,37 42,36.9 42,36.9 C40.5,36.8 40.7,34.5 42.2,34.6 C42.2,34.6 46.7,35 49.4,35 C52.3,35 56.7,34.6 56.7,34.6 C58.2,34.5 58.4,36.7 56.9,36.9 C56.9,36.9 55.4,37.1 53.8,37.2 L63.7,66.7 L66.4,57.6 C67.8,53.9 68.5,51 68.5,48.6 Z M50.5,52.4 L42.3,76.3 C44.8,77 47.4,77.4 50.1,77.4 C53.3,77.4 56.4,76.8 59.2,75.8 C59.1,75.7 59.1,75.6 59,75.4 L50.5,52.4 Z M74.1,36.8 C74.2,37.7 74.3,38.6 74.3,39.6 C74.3,42.4 73.8,45.5 72.2,49.4 L63.8,73.6 C72,69 77.5,60.1 77.5,50 C77.5,45.2 76.2,40.7 74.1,36.8 Z M18,50 C18,67.6 32.4,82 50,82 C67.6,82 82,67.6 82,50 C82,32.4 67.6,18 50,18 C32.4,18 18,32.4 18,50 Z M19.5,50 C19.5,33.2 33.2,19.5 50,19.5 C66.8,19.5 80.5,33.2 80.5,50 C80.5,66.8 66.8,80.5 50,80.5 C33.2,80.5 19.5,66.8 19.5,50 Z" id="Shape" fill="#FFFFFF"></path>
        </g>
    </g>
</svg>