<svg xmlns="http://www.w3.org/2000/svg" viewBox="0 0 1098.88 680.33"><title>Asset 1</title><g id="Layer_2" data-name="Layer 2"><g id="Layer_3" data-name="Layer 3"><path d="M1098.08,226a55,55,0,0,0-1.91-13.36,26.2,26.2,0,0,0-.58-2.71c-1.92-8.28-5.45-16-8.9-23.81a79.94,79.94,0,0,0-7.58-13.47,208.91,208.91,0,0,0-29.52-34.12c-16-14.77-32.44-28.42-46.42-45.09a233.53,233.53,0,0,1-19-31.22C978.54,51.11,964,40.2,951.91,37.45c-14.66-3.34-28.14-1.38-41.61,5.44L844.09,76.43l-71.6,36.28A153.26,153.26,0,0,0,746,78a57,57,0,0,0-4.74-4.1c-4.85-8.85-12.63-17.14-20.51-21.3-10.91-5.76-22.15-8.06-34.43-6.41a57.41,57.41,0,0,0-21.69,7.35C657.74,44.77,648,37.06,636.8,34.51a64.41,64.41,0,0,0-28.71,0,40.69,40.69,0,0,0-18.36,9.67,40.81,40.81,0,0,0-13.91,15.15Q569.19,74,562.23,88.45l-.45-.11a64.12,64.12,0,0,0-28.71,0c-13.68,3.11-24.76,13.61-32.28,24.81L486,135.2c-2.92-8.39-7.87-16.51-13.24-21.45a55.93,55.93,0,0,0-26-13.93,54.56,54.56,0,0,0-14.58-16.9c-9.1-7-20.89-12.12-32.72-11.59a64.55,64.55,0,0,0-17.62,3.25,44.75,44.75,0,0,0-5.41-1.67L362.11,71a53.7,53.7,0,0,0-27.25,7.38L323.93,86.8A54,54,0,0,0,310,110.63c-.91,2.59-1.7,5.21-2.37,7.88q-6.87,22.71-14.28,45.26L289,158.14l-10.92-8.44c-10.51-6.15-22.53-8-34.44-6.41a57.14,57.14,0,0,0-7.3,1.45q-2.87-7.16-5.61-14.38c-3.54-9.35-7.85-19-10.28-28.71-2.5-9.94-3.63-20.31-6-30.32q-3.76-16-8.76-31.65a55.63,55.63,0,0,0-19.35-28C177.29,4.6,165.51-.49,153.68,0a64.12,64.12,0,0,0-27.26,7.37c-11.85,6.27-21.14,19.68-24.81,32.27-11.34,38.85-13.22,80.15-12.92,120.4.25,33.8,1.73,67.74-1.91,101.4a227.64,227.64,0,0,1-11,42.41,40.87,40.87,0,0,0-1,21.53,40.49,40.49,0,0,0,1.2,8.12c-3.87-.63-7.83-1.06-12-1.33C45.48,331,26.62,343.35,17.49,359c-10,17.06-9.31,37.4,0,54.51a354.5,354.5,0,0,0,23.37,37.25,78.93,78.93,0,0,0-7.15,5.61c-13.35,11.72-21.27,26.79-27.75,43a59.36,59.36,0,0,0-3.53,12.56C1,520.56-.56,529.6.2,538.47A54,54,0,0,0,26.94,585.1c16.46,9.63,38.09,10,54.51,0,2.57-1.56,5.16-3.08,7.76-4.59Q85,596.08,81,611.67c-7.22,28.31,9.13,58.5,37.72,66.43C132.88,682,147,680.65,160.27,675s22.75-14.73,30.9-26.65c3.91-5.71,6.65-12.52,8.87-19.1,2.08-.72,4.12-1.53,6.1-2.41A55.27,55.27,0,0,0,227,641.94a51.54,51.54,0,0,0,28,3.69,26.93,26.93,0,0,0,13.62-3.69A40.5,40.5,0,0,0,286,630.78q13.09-10.86,25.43-22.57a39.94,39.94,0,0,0,6-1.41c12.48-4,25.18-11.8,31.64-23.67a58.53,58.53,0,0,0,33.23-4.31,51.68,51.68,0,0,0,8.67,8.53l-.3.43-5.44,12.9q-1,7.19-1.93,14.36a53.49,53.49,0,0,0,11.59,32.72,51.69,51.69,0,0,0,21.6,16.63c10.09,4.26,24.6,7.07,35.17,2.72,41.12-16.92,82.66-33.16,123.53-50.79.66.25,1.32.48,2,.7a47.91,47.91,0,0,0,18.94,10.73,44.36,44.36,0,0,0,16.21,2.41c10.42-.47,21.71-3.15,30.6-9.15l27-14.33,6.37-4.92a56.48,56.48,0,0,0,9.24-1.68l15-3a40.64,40.64,0,0,0,18.36-9.67,40,40,0,0,0,4.84-3.68,53.83,53.83,0,0,0,17.42.42,63.89,63.89,0,0,0,7.37-1.44l.5.67c6.89,8.92,16.74,16.77,28,19.35,23.29,5.3,48.7-3.44,61-24.82l.72-1.27a40,40,0,0,0,4.12,1.61A26.93,26.93,0,0,0,856.48,582l1.3.24a51,51,0,0,0,3,6.16,49.29,49.29,0,0,0,3.13,4.66,48.74,48.74,0,0,0,11.43,11.44,47.33,47.33,0,0,0,17.71,8.71h0a44.31,44.31,0,0,0,14.35,1.92c1.15-.05,2.31-.14,3.47-.24a48.29,48.29,0,0,0,22-6,44.48,44.48,0,0,0,12.75-9.53,70.4,70.4,0,0,0,7.16-9.23l.4-.62c.36-.57.71-1.16,1.06-1.74l.15-.26a52.74,52.74,0,0,0,6.17-15.61c2.27-8,4.2-16.14,5.85-24.32,9.7-16.59,21.78-31.91,32-48.14q17.29-27.47,32.09-56.38A810.66,810.66,0,0,0,1084,311.59c3.58-11.72,7-23.54,9.82-35.49a240.57,240.57,0,0,0,4.78-30.77A89.35,89.35,0,0,0,1098.08,226Z"/></g></g></svg>